{"title":"Powder 1995 DVDrip English Klam","uid":6667999,"size":1643681946,"categoryP":"video","categoryS":"movies","magnet":"?xt=urn:btih:9d3a503a50566df45d6aec18eefb45cdaeccc1b8&amp;dn=Powder+1995+DVDrip+English+Klam&amp;tr=udp%3A%2F%2Ftracker.openbittorrent.com%3A80&amp;tr=udp%3A%2F%2Fopen.demonii.com%3A1337&amp;tr=udp%3A%2F%2Ftracker.coppersurfer.tk%3A6969&amp;tr=udp%3A%2F%2Fexodus.desync.com%3A6969","seeders":0,"leechers":0,"uploader":"Klambake","files":-1,"time":1315766992,"description":"With: Sean Patrick Flanery, Mary Steenburgen and Jeff Goldblum\n\nEen verlegen jongeman met de bijnaam Powder wordt gepest door zijn klasgenoten die zijn schokkende uiterlijk niet accepteren, hoewel hij zijn best doet om erbij te horen. Het gepest houdt echter op wanneer Powder een mysterieuze kracht laat zien waarmee hij tot ongelooflijke dingen in staat is. Deze kracht verandert het leven van de anderen op een onvoorstelbare manier.\n\nA young bald albino boy with unique powers shakes up the rural community he lives in.\n\n------------------ Dutch Friends ------------------\nYou can find my Friends at: http://www.Film-Test.nl \n------ They got my dutchs subs ---- and more ------\n\nGeneral:\n\nComplete name                    : Powder\\Powder.avi\nFormat                           : AVI\nFormat/Info                      : Audio Video Interleave\nFile size                        : 1.53 GiB\nDuration                         : 1h 47mn\nOverall bit rate                 : 2 045 Kbps\n\nVideo:\n\nFormat                           : MPEG-4 Visual\nFormat profile                   : Simple@L3\nFormat settings, BVOP            : No\nFormat settings, QPel            : No\nFormat settings, GMC             : No warppoints\nFormat settings, Matrix          : Default (H.263)\nCodec ID                         : XVID\nCodec ID/Hint                    : XviD\nDuration                         : 1h 47mn\nBit rate                         : 1 586 Kbps\nWidth                            : 652 pixels\nHeight                           : 352 pixels\nDisplay aspect ratio             : 1.852\nFrame rate                       : 25.000 fps\nColor space                      : YUV\nChroma subsampling               : 4:2:0\nBit depth                        : 8 bits\nScan type                        : Progressive\nBits/(Pixel*Frame)               : 0.276\nStream size                      : 1.19 GiB (78%)\nWriting library                  : XviD 1.1.2 (UTC 2006-11-01)\n\nAudio:\n\nFormat                           : AC-3\nFormat/Info                      : Audio Coding 3\nMode extension                   : CM (complete main)\nCodec ID                         : 2000\nDuration                         : 1h 47mn\nBit rate mode                    : Constant\nBit rate                         : 448 Kbps\nChannel(s)                       : 6 channels\nChannel positions                : Front: L C R, Side: L R, LFE\nSampling rate                    : 48.0 KHz\nBit depth                        : 16 bits\nStream size                      : 343 MiB (22%)\nAlignment                        : Aligned on interleaves\nInterleave, duration             : 32 ms (0.80 video frame)\nInterleave, preload duration     : 352 ms\n\n","torrent":{"xt":"urn:btih:9d3a503a50566df45d6aec18eefb45cdaeccc1b8","amp;dn":"Powder+1995+DVDrip+English+Klam","amp;tr":["udp%3A%2F%2Ftracker.openbittorrent.com%3A80","udp%3A%2F%2Fopen.demonii.com%3A1337","udp%3A%2F%2Ftracker.coppersurfer.tk%3A6969","udp%3A%2F%2Fexodus.desync.com%3A6969"],"infoHash":"9d3a503a50566df45d6aec18eefb45cdaeccc1b8","infoHashBuffer":{"type":"Buffer","data":[157,58,80,58,80,86,109,244,93,106,236,24,238,251,69,205,174,204,193,184]},"announce":[],"urlList":[]}}